<svg xmlns="http://www.w3.org/2000/svg" width="1200" height="630" viewBox="0 0 1200 630" fill="none">
  <rect width="1200" height="630" fill="#f8fafc"/>
  <rect x="80" y="80" width="1040" height="470" rx="24" fill="#ffffff" stroke="#e2e8f0" stroke-width="2"/>
  <rect x="120" y="130" width="200" height="28" rx="14" fill="#eff6ff"/>
  <rect x="120" y="180" width="420" height="10" rx="5" fill="#1a365d"/>
  <rect x="120" y="210" width="380" height="8" rx="4" fill="#94a3b8"/>
  <rect x="120" y="240" width="340" height="8" rx="4" fill="#94a3b8"/>
  <rect x="120" y="300" width="160" height="48" rx="12" fill="#2563eb"/>
  <rect x="300" y="300" width="180" height="48" rx="12" fill="#ffffff" stroke="#e2e8f0" stroke-width="2"/>
  <rect x="680" y="130" width="380" height="300" rx="16" fill="#eff6ff" stroke="#e2e8f0" stroke-width="2"/>
  <rect x="720" y="180" width="40" height="40" rx="20" fill="#2563eb"/>
  <rect x="780" y="192" width="200" height="8" rx="4" fill="#1a365d"/>
  <rect x="720" y="240" width="40" height="40" rx="20" fill="#3b82f6"/>
  <rect x="780" y="252" width="180" height="8" rx="4" fill="#475569"/>
  <rect x="720" y="300" width="40" height="40" rx="20" fill="#94a3b8"/>
  <rect x="780" y="312" width="160" height="8" rx="4" fill="#475569"/>
  <text x="120" y="420" font-family="Segoe UI, sans-serif" font-size="32" font-weight="700" fill="#1a365d">???????</text>
  <text x="120" y="460" font-family="Segoe UI, sans-serif" font-size="18" fill="#64748b">React????LP????</text>
</svg>
