<svg xmlns="http://www.w3.org/2000/svg" width="1200" height="630" viewBox="0 0 1200 630" fill="none">
  <rect width="1200" height="630" fill="#f8fafc"/>
  <rect x="80" y="80" width="1040" height="470" rx="24" fill="#ffffff" stroke="#e2e8f0" stroke-width="2"/>
  <rect x="120" y="140" width="320" height="12" rx="6" fill="#1a365d"/>
  <rect x="120" y="180" width="480" height="8" rx="4" fill="#94a3b8"/>
  <rect x="120" y="210" width="420" height="8" rx="4" fill="#94a3b8"/>
  <rect x="120" y="280" width="160" height="48" rx="12" fill="#2563eb"/>
  <rect x="300" y="280" width="160" height="48" rx="12" fill="#ffffff" stroke="#e2e8f0" stroke-width="2"/>
  <rect x="680" y="140" width="380" height="280" rx="16" fill="#eff6ff" stroke="#e2e8f0" stroke-width="2"/>
  <rect x="720" y="190" width="40" height="40" rx="20" fill="#2563eb"/>
  <rect x="780" y="200" width="220" height="10" rx="5" fill="#1a365d"/>
  <rect x="720" y="260" width="40" height="40" rx="20" fill="#3b82f6"/>
  <rect x="780" y="270" width="200" height="10" rx="5" fill="#475569"/>
  <rect x="720" y="330" width="40" height="40" rx="20" fill="#94a3b8"/>
  <rect x="780" y="340" width="180" height="10" rx="5" fill="#475569"/>
  <text x="120" y="460" font-family="Segoe UI, sans-serif" font-size="28" font-weight="700" fill="#1a365d">~js¹¿üÈ</text>
  <text x="120" y="500" font-family="Segoe UI, sans-serif" font-size="18" fill="#64748b">ªóé¤ó§µüÓ¹ LP Sample</text>
</svg>
